<svg viewBox="0 0 328 170" fill="none" xmlns="http://www.w3.org/2000/svg">
<rect width="328" height="170" fill="white"/>
<path d="M87.7212 105.989C88.3068 105.989 88.5996 105.601 88.3068 105.018L75.8135 77.2643L86.1595 60.1848C86.4523 59.6026 86.1595 59.2144 85.5739 59.2144H77.3752C76.692 59.2144 76.3992 59.5055 76.0088 60.1848L65.9556 78.1377V40.9704C65.9556 40.3882 65.5652 40 64.9795 40H56.976C56.3904 40 56 40.3882 56 40.9704V105.018C56 105.601 56.3904 105.989 56.976 105.989H64.9795C65.5652 105.989 65.9556 105.601 65.9556 105.018V92.8881L69.8597 85.901L77.9608 105.018C78.2536 105.698 78.5464 105.989 79.2297 105.989H87.7212Z" fill="#262177"/>
<path d="M118.709 105.989C119.294 105.989 119.685 105.601 119.685 105.018V74.353C119.685 62.999 115.586 58.341 104.947 58.341C99.6761 58.341 95.284 60.0878 92.1606 62.5138C91.7702 62.902 91.575 63.2902 91.8678 63.8724L94.4055 69.5979C94.6983 70.2772 95.284 70.3743 95.8696 69.9861C98.3097 68.3364 100.555 67.2689 103.678 67.2689C108.656 67.2689 110.12 69.5979 110.12 74.7412V77.4584C110.12 77.8465 109.925 78.0406 109.534 78.0406H104.459C96.748 78.0406 90.111 81.8253 90.111 92.8881C90.111 103.563 95.9672 106.862 101.335 106.862C105.63 106.862 108.851 104.63 110.022 101.331H110.12V105.018C110.12 105.601 110.51 105.989 111.096 105.989H118.709ZM104.263 98.7106C101.14 98.7106 99.5785 96.4787 99.5785 92.4999C99.5785 88.6182 101.335 85.9981 106.118 85.9981H109.534C109.925 85.9981 110.12 86.1922 110.12 86.5803V92.1118C110.12 95.9935 107.777 98.7106 104.263 98.7106Z" fill="#262177"/>
<path d="M138.406 106.862C147.679 106.862 152.949 100.749 152.949 92.597C152.949 85.6099 150.217 81.146 142.799 78.3317L138.992 76.8761C135.088 75.4205 133.917 73.4796 133.917 71.3447C133.917 68.6275 135.576 66.4926 138.504 66.4926C141.432 66.4926 142.896 68.3364 143.579 70.7624C143.775 71.3447 144.165 71.6358 144.751 71.5388L151.388 70.2772C151.876 70.1802 152.169 69.695 152.071 69.0157C151.193 63.3872 146.8 58.341 138.504 58.341C130.013 58.341 124.547 64.2606 124.547 72.024C124.547 78.914 128.549 83.3779 134.698 85.707L138.504 87.1626C142.408 88.6182 143.579 90.365 143.579 93.2763C143.579 96.5757 141.53 98.6136 138.504 98.6136C135.478 98.6136 133.233 96.8668 132.745 93.1792C132.648 92.597 132.16 92.3058 131.574 92.4029L124.547 93.7615C123.961 93.8585 123.668 94.3437 123.766 94.926C124.547 102.204 129.817 106.862 138.406 106.862Z" fill="#262177"/>
<path d="M173.799 106.571C174.384 106.571 174.775 106.183 174.775 105.601V98.4195C174.775 97.8373 174.384 97.4491 173.799 97.4491H172.627C169.992 97.4491 168.821 96.1875 168.821 93.4703V67.3659C168.821 66.9778 169.016 66.7837 169.406 66.7837H173.799C174.384 66.7837 174.775 66.3955 174.775 65.8133V60.1848C174.775 59.6026 174.384 59.2144 173.799 59.2144H169.406C169.016 59.2144 168.821 59.0203 168.821 58.6321V45.8225C168.821 45.2403 168.43 44.8521 167.845 44.8521H159.841C159.256 44.8521 158.865 45.2403 158.865 45.8225V58.6321C158.865 59.0203 158.67 59.2144 158.28 59.2144H155.449C154.863 59.2144 154.473 59.6026 154.473 60.1848V65.8133C154.473 66.3955 154.863 66.7837 155.449 66.7837H158.28C158.67 66.7837 158.865 66.9778 158.865 67.3659V93.6644C158.865 102.981 162.672 106.571 170.87 106.571H173.799Z" fill="#262177"/>
<path d="M188.33 105.989C188.916 105.989 189.306 105.601 189.306 105.018V77.4584C189.306 71.2476 192.429 68.3364 197.407 68.3364H198.969C199.554 68.3364 199.75 68.2393 199.945 67.7541L202.19 59.5055C202.385 58.9233 202.092 58.6321 201.507 58.4381C201.018 58.341 200.238 58.341 199.75 58.341C194.381 58.341 191.161 60.9612 189.404 64.7458H189.306V60.1848C189.306 59.6026 188.916 59.2144 188.33 59.2144H180.327C179.741 59.2144 179.35 59.6026 179.35 60.1848V105.018C179.35 105.601 179.741 105.989 180.327 105.989H188.33Z" fill="#262177"/>
<path d="M233.61 105.989C234.196 105.989 234.587 105.601 234.587 105.018V60.1848C234.587 59.6026 234.196 59.2144 233.61 59.2144H225.607C225.021 59.2144 224.631 59.6026 224.631 60.1848V90.9473C224.631 95.4112 222.874 97.7402 219.653 97.7402C216.432 97.7402 214.773 95.4112 214.773 90.9473V60.1848C214.773 59.6026 214.383 59.2144 213.797 59.2144H205.793C205.208 59.2144 204.817 59.6026 204.817 60.1848V92.3058C204.817 102.592 208.722 106.862 215.651 106.862C220.141 106.862 222.874 104.533 224.533 101.331H224.631V105.018C224.631 105.601 225.021 105.989 225.607 105.989H233.61Z" fill="#262177"/>
<path d="M250.625 123.456C251.21 123.456 251.601 123.068 251.601 122.486V101.234H251.698C252.967 104.533 255.603 106.862 260.483 106.862C265.851 106.862 269.072 104.339 270.731 99.0988C271.61 96.4787 272 93.6644 272 82.6016C272 71.6358 271.61 68.7245 270.731 66.1044C269.072 60.8641 265.851 58.341 260.483 58.341C255.603 58.341 252.967 60.7671 251.698 63.9695H251.601V60.1848C251.601 59.6026 251.21 59.2144 250.625 59.2144H242.621C242.036 59.2144 241.645 59.6026 241.645 60.1848V122.486C241.645 123.068 242.036 123.456 242.621 123.456H250.625ZM262.044 82.6016C262.044 92.1118 261.947 93.0822 261.556 94.4408C260.873 96.4787 259.312 97.7402 256.774 97.7402C254.334 97.7402 252.772 96.4787 252.089 94.4408C251.698 93.0822 251.601 92.1118 251.601 82.6016C251.601 73.0915 251.698 72.121 252.089 70.7624C252.772 68.7245 254.334 67.463 256.774 67.463C259.312 67.463 260.873 68.7245 261.556 70.7624C261.947 72.121 262.044 73.0915 262.044 82.6016Z" fill="#262177"/>
<path d="M114.349 130C116.082 130 117.047 128.864 117.047 127.239C117.047 125.869 116.574 125.007 115.117 124.459L114.329 124.166C113.483 123.833 113.246 123.382 113.246 122.815C113.246 122.051 113.62 121.562 114.369 121.562C115.097 121.562 115.393 121.973 115.57 122.658C115.609 122.775 115.688 122.834 115.806 122.815L116.751 122.619C116.85 122.599 116.909 122.501 116.889 122.364C116.751 121.248 115.924 120.269 114.369 120.269C112.774 120.269 111.789 121.385 111.789 122.912C111.789 124.263 112.518 125.086 113.739 125.556L114.526 125.849C115.353 126.182 115.609 126.593 115.609 127.337C115.609 128.238 115.137 128.688 114.369 128.688C113.68 128.688 113.148 128.297 113.03 127.337C113.01 127.22 112.912 127.161 112.793 127.181L111.789 127.376C111.671 127.396 111.612 127.494 111.632 127.611C111.789 129.139 112.774 130 114.349 130Z" fill="#262177"/>
<path d="M128.208 129.824C128.326 129.824 128.405 129.745 128.405 129.628V123.147C128.405 121.19 127.617 120.269 126.061 120.269C125.096 120.269 124.447 120.7 124.092 121.385H124.072C123.757 120.622 123.108 120.269 122.182 120.269C121.256 120.269 120.685 120.759 120.39 121.385H120.37V120.641C120.37 120.524 120.292 120.446 120.173 120.446H119.051C118.933 120.446 118.854 120.524 118.854 120.641V129.628C118.854 129.745 118.933 129.824 119.051 129.824H120.173C120.292 129.824 120.37 129.745 120.37 129.628V123.382C120.37 122.227 120.843 121.679 121.631 121.679C122.477 121.679 122.871 122.266 122.871 123.382V129.628C122.871 129.745 122.95 129.824 123.068 129.824H124.191C124.309 129.824 124.387 129.745 124.387 129.628V123.343C124.387 122.227 124.86 121.679 125.628 121.679C126.475 121.679 126.888 122.247 126.888 123.382V129.628C126.888 129.745 126.967 129.824 127.085 129.824H128.208Z" fill="#262177"/>
<path d="M135.803 129.824C135.921 129.824 135.999 129.745 135.999 129.628V120.641C135.999 120.524 135.921 120.446 135.803 120.446H134.68C134.562 120.446 134.483 120.524 134.483 120.641V126.887C134.483 128.023 134.03 128.59 133.262 128.59C132.416 128.59 132.041 128.003 132.041 126.887V120.641C132.041 120.524 131.963 120.446 131.844 120.446H130.722C130.604 120.446 130.525 120.524 130.525 120.641V127.102C130.525 129.099 131.254 130 132.691 130C133.636 130 134.188 129.511 134.463 128.884H134.483V129.628C134.483 129.745 134.562 129.824 134.68 129.824H135.803Z" fill="#262177"/>
<path d="M139.596 129.824C139.714 129.824 139.793 129.745 139.793 129.628V123.833C139.793 122.462 140.463 121.816 141.388 121.816H141.684C141.802 121.816 141.88 121.777 141.92 121.64L142.196 120.524C142.235 120.406 142.196 120.328 142.077 120.309C141.999 120.289 141.821 120.269 141.703 120.269C140.738 120.269 140.128 120.798 139.813 121.522H139.793V120.641C139.793 120.524 139.714 120.446 139.596 120.446H138.474C138.356 120.446 138.277 120.524 138.277 120.641V129.628C138.277 129.745 138.356 129.824 138.474 129.824H139.596Z" fill="#262177"/>
<path d="M146.989 130C148.013 130 148.702 129.511 149.037 128.473C149.214 127.925 149.274 127.435 149.274 125.125C149.274 122.815 149.214 122.325 149.037 121.797C148.702 120.759 148.013 120.269 146.989 120.269C145.965 120.269 145.453 120.759 145.197 121.405H145.178V116.706C145.178 116.589 145.099 116.51 144.981 116.51H143.858C143.74 116.51 143.661 116.589 143.661 116.706V129.628C143.661 129.745 143.74 129.824 143.858 129.824H144.981C145.099 129.824 145.178 129.745 145.178 129.628V128.864H145.197C145.453 129.491 145.965 130 146.989 130ZM146.477 128.59C145.887 128.59 145.493 128.277 145.315 127.768C145.217 127.435 145.178 127.181 145.178 125.125C145.178 123.089 145.217 122.834 145.315 122.501C145.493 121.992 145.887 121.679 146.477 121.679C147.068 121.679 147.442 121.973 147.619 122.501C147.718 122.834 147.757 123.089 147.757 125.125C147.757 127.181 147.718 127.435 147.619 127.768C147.442 128.297 147.068 128.59 146.477 128.59Z" fill="#262177"/>
<path d="M152.634 129.824C152.753 129.824 152.831 129.745 152.831 129.628V123.833C152.831 122.462 153.501 121.816 154.426 121.816H154.722C154.84 121.816 154.919 121.777 154.958 121.64L155.234 120.524C155.273 120.406 155.234 120.328 155.116 120.309C155.037 120.289 154.86 120.269 154.741 120.269C153.777 120.269 153.166 120.798 152.851 121.522H152.831V120.641C152.831 120.524 152.753 120.446 152.634 120.446H151.512C151.394 120.446 151.315 120.524 151.315 120.641V129.628C151.315 129.745 151.394 129.824 151.512 129.824H152.634Z" fill="#262177"/>
<path d="M161.276 129.824C161.395 129.824 161.473 129.745 161.473 129.628V123.363C161.473 121.131 160.686 120.269 158.795 120.269C157.791 120.269 156.924 120.622 156.373 121.131C156.275 121.229 156.275 121.327 156.334 121.444L156.708 122.208C156.767 122.345 156.905 122.364 157.023 122.286C157.476 121.934 157.929 121.659 158.618 121.659C159.642 121.659 160.016 122.188 160.016 123.441V124.205C160.016 124.283 159.977 124.322 159.898 124.322H158.776C157.2 124.322 155.999 125.105 155.999 127.22C155.999 129.315 157.102 130 158.224 130C159.071 130 159.74 129.55 159.996 128.825H160.016V129.628C160.016 129.745 160.095 129.824 160.213 129.824H161.276ZM158.638 128.708C157.889 128.708 157.456 128.199 157.456 127.181C157.456 126.143 157.889 125.595 159.012 125.595H159.898C159.977 125.595 160.016 125.634 160.016 125.712V127.004C160.016 128.023 159.445 128.708 158.638 128.708Z" fill="#262177"/>
<path d="M168.86 129.824C168.978 129.824 169.057 129.745 169.057 129.628V120.641C169.057 120.524 168.978 120.446 168.86 120.446H167.737C167.619 120.446 167.54 120.524 167.54 120.641V126.887C167.54 128.023 167.087 128.59 166.319 128.59C165.473 128.59 165.098 128.003 165.098 126.887V120.641C165.098 120.524 165.02 120.446 164.902 120.446H163.779C163.661 120.446 163.582 120.524 163.582 120.641V127.102C163.582 129.099 164.311 130 165.748 130C166.694 130 167.245 129.511 167.521 128.884H167.54V129.628C167.54 129.745 167.619 129.824 167.737 129.824H168.86Z" fill="#262177"/>
<path d="M175.981 118.468C176.119 118.429 176.158 118.351 176.119 118.233L175.883 117.528C175.843 117.411 175.784 117.372 175.666 117.411L174.426 117.822L173.855 116.706C173.776 116.569 173.697 116.51 173.579 116.51H172.417C172.299 116.51 172.259 116.589 172.319 116.706L173.126 118.233L171.984 118.605C171.846 118.644 171.807 118.723 171.846 118.84L172.082 119.525C172.122 119.643 172.181 119.682 172.299 119.643L173.638 119.212L174.524 120.896H174.504C174.327 120.778 173.953 120.681 173.559 120.681C172.437 120.681 171.649 121.287 171.295 122.364C171.137 122.873 171.058 123.382 171.058 125.34C171.058 127.259 171.117 127.69 171.275 128.199C171.629 129.354 172.575 130 173.874 130C175.174 130 176.099 129.354 176.474 128.199C176.631 127.69 176.67 127.259 176.67 125.262C176.67 122.56 176.493 121.718 175.509 119.839L174.957 118.801L175.981 118.468ZM173.874 128.59C173.283 128.59 172.89 128.297 172.712 127.768C172.614 127.435 172.594 127.181 172.594 125.34C172.594 123.461 172.614 123.226 172.712 122.893C172.89 122.364 173.283 122.071 173.874 122.071C174.445 122.071 174.839 122.345 175.016 122.893C175.115 123.226 175.154 123.519 175.154 125.34C175.154 127.181 175.134 127.435 175.036 127.768C174.859 128.297 174.465 128.59 173.874 128.59Z" fill="#262177"/>
<path d="M182.607 127.102C182.607 128.845 183.65 130 185.442 130C186.663 130 187.569 129.471 188.376 128.355L188.79 129.06C189.125 129.648 189.381 129.824 190.011 129.824H190.444C190.562 129.824 190.641 129.745 190.641 129.628V128.649C190.641 128.532 190.562 128.453 190.444 128.453H190.365C190.129 128.453 189.991 128.375 189.755 127.944L189.203 127.004L190.444 124.792C190.503 124.675 190.483 124.577 190.385 124.518L189.617 124.087C189.499 124.009 189.42 124.048 189.361 124.166L188.455 125.732L186.742 122.775C188.298 120.974 188.77 119.995 188.77 118.958C188.77 117.352 187.668 116.334 186.151 116.334C184.635 116.334 183.552 117.352 183.552 118.958C183.552 119.878 183.965 120.778 184.773 122.168L185.048 122.638C183.394 124.577 182.607 125.791 182.607 127.102ZM186.013 121.522C185.147 119.995 184.97 119.388 184.97 118.918C184.97 118.057 185.442 117.567 186.171 117.567C186.9 117.567 187.372 118.057 187.372 118.918C187.372 119.682 187.096 120.25 186.013 121.522ZM184.024 127.063C184.024 126.143 184.536 125.321 185.777 123.891L187.648 127.122C186.88 128.297 186.269 128.649 185.521 128.649C184.615 128.649 184.024 128.081 184.024 127.063Z" fill="#262177"/>
<path d="M200.027 130C201.051 130 201.74 129.511 202.075 128.473C202.252 127.925 202.311 127.435 202.311 125.125C202.311 122.815 202.252 122.325 202.075 121.797C201.74 120.759 201.051 120.269 200.027 120.269C199.003 120.269 198.491 120.759 198.235 121.405H198.215V116.706C198.215 116.589 198.136 116.51 198.018 116.51H196.896C196.778 116.51 196.699 116.589 196.699 116.706V129.628C196.699 129.745 196.778 129.824 196.896 129.824H198.018C198.136 129.824 198.215 129.745 198.215 129.628V128.864H198.235C198.491 129.491 199.003 130 200.027 130ZM199.515 128.59C198.924 128.59 198.53 128.277 198.353 127.768C198.255 127.435 198.215 127.181 198.215 125.125C198.215 123.089 198.255 122.834 198.353 122.501C198.53 121.992 198.924 121.679 199.515 121.679C200.106 121.679 200.48 121.973 200.657 122.501C200.755 122.834 200.795 123.089 200.795 125.125C200.795 127.181 200.755 127.435 200.657 127.768C200.48 128.297 200.106 128.59 199.515 128.59Z" fill="#262177"/>
<path d="M209.276 129.824C209.394 129.824 209.473 129.745 209.473 129.628V123.363C209.473 121.131 208.685 120.269 206.794 120.269C205.79 120.269 204.924 120.622 204.372 121.131C204.274 121.229 204.274 121.327 204.333 121.444L204.707 122.208C204.766 122.345 204.904 122.364 205.022 122.286C205.475 121.934 205.928 121.659 206.617 121.659C207.641 121.659 208.015 122.188 208.015 123.441V124.205C208.015 124.283 207.976 124.322 207.897 124.322H206.775C205.199 124.322 203.998 125.105 203.998 127.22C203.998 129.315 205.101 130 206.223 130C207.07 130 207.74 129.55 207.996 128.825H208.015V129.628C208.015 129.745 208.094 129.824 208.212 129.824H209.276ZM206.637 128.708C205.889 128.708 205.455 128.199 205.455 127.181C205.455 126.143 205.889 125.595 207.011 125.595H207.897C207.976 125.595 208.015 125.634 208.015 125.712V127.004C208.015 128.023 207.444 128.708 206.637 128.708Z" fill="#262177"/>
<path d="M212.98 129.824C213.098 129.824 213.176 129.745 213.176 129.628V123.833C213.176 122.462 213.846 121.816 214.771 121.816H215.067C215.185 121.816 215.264 121.777 215.303 121.64L215.579 120.524C215.618 120.406 215.579 120.328 215.461 120.309C215.382 120.289 215.205 120.269 215.087 120.269C214.122 120.269 213.511 120.798 213.196 121.522H213.176V120.641C213.176 120.524 213.098 120.446 212.98 120.446H211.857C211.739 120.446 211.66 120.524 211.66 120.641V129.628C211.66 129.745 211.739 129.824 211.857 129.824H212.98Z" fill="#262177"/>
</svg>
